<?xml version="1.0" encoding="utf-8"?>
<!-- Generator: Adobe Illustrator 18.1.1, SVG Export Plug-In . SVG Version: 6.00 Build 0)  -->
<svg version="1.1" id="Layer_1" xmlns="http://www.w3.org/2000/svg" xmlns:xlink="http://www.w3.org/1999/xlink" x="0px" y="0px"
	 viewBox="0 0 500 500" enable-background="new 0 0 500 500" xml:space="preserve">
<g>
	<path fill="#FFFFFF" d="M28.2,191.4c56.7,39.8,112.5,79.5,168.9,118.4c19.5,13.4,41.1,24.1,65.8,17.7c13.2-3.5,26.6-8.7,37.8-16.3
		c52.1-35.4,103.5-71.8,155-108c5.3-3.7,9.8-8.5,16.1-14c0,4.6,0,7.4,0,10.2c0,60.1,0,120.1,0,180.2c0,29.5-15.7,45.1-45.2,45.1
		c-117.8,0-235.6,0-353.5,0c-29,0-44.9-15.7-44.9-44.4c-0.1-60.4,0-120.8,0-181.2C28.2,196.3,28.2,193.7,28.2,191.4z"/>
	<path fill="#FFFFFF" d="M250.2,75.9c58.7,0,117.5,1,176.2-0.4c27.5-0.7,55.4,22,41.9,59.9c-7.6,21.5-23.1,36.7-41.1,49.4
		c-45.8,32.4-91.8,64.5-138,96.2c-32.8,22.5-45.5,22.6-78.1,0.2c-47.6-32.7-95.1-65.5-141.8-99.4c-12.5-9.1-22.6-22-32.2-34.4
		c-8.5-11-11-24.4-7.7-38.5C34.6,86.8,47.3,76,70,76C130,75.8,190.1,75.9,250.2,75.9z"/>
</g>
</svg>
