<?xml version="1.0" encoding="utf-8"?>
<!-- Generator: Adobe Illustrator 18.1.1, SVG Export Plug-In . SVG Version: 6.00 Build 0)  -->
<svg version="1.1" id="Layer_1" xmlns="http://www.w3.org/2000/svg" xmlns:xlink="http://www.w3.org/1999/xlink" x="0px" y="0px"
	 viewBox="-603 105 1792 1792" enable-background="new -603 105 1792 1792" xml:space="preserve">
<path fill="#FCFCFC" d="M293,233c139.3,0,267.8,34.3,385.5,103S889.3,497.8,958,615.5s103,246.2,103,385.5
	c0,167.3-48.8,317.8-146.5,451.5S690.7,1678.7,536,1730c-18,3.3-31.3,1-40-7s-13-18-13-30c0-2,0.2-27.5,0.5-76.5s0.5-93.8,0.5-134.5
	c0-64.7-17.3-112-52-142c38-4,72.2-10,102.5-18s61.7-21,94-39s59.3-40.2,81-66.5s39.3-61.3,53-105c13.7-43.7,20.5-93.8,20.5-150.5
	c0-79.3-26.3-148-79-206c24.7-60.7,22-128.7-8-204c-18.7-6-45.7-2.3-81,11s-66,28-92,44l-38,24c-62-17.3-126-26-192-26
	s-130,8.7-192,26c-10.7-7.3-24.8-16.3-42.5-27S13,579.5-25,564.5S-91.3,545-110,551c-30,75.3-32.7,143.3-8,204
	c-52.7,58-79,126.7-79,206c0,56.7,6.8,106.7,20.5,150c13.7,43.3,31.2,78.3,52.5,105s48.2,49,80.5,67s63.7,31,94,39s64.5,14,102.5,18
	c-26,24-42.3,58.3-49,103c-14,6.7-29,11.7-45,15s-35,5-57,5s-43.8-7.2-65.5-21.5s-40.2-35.2-55.5-62.5c-12.7-21.3-28.8-38.7-48.5-52
	s-36.2-21.3-49.5-24l-20-3c-14,0-23.7,1.5-29,4.5s-7,6.8-5,11.5s5,9.3,9,14s8.3,8.7,13,12l7,5c14.7,6.7,29.2,19.3,43.5,38
	s24.8,35.7,31.5,51l10,23c8.7,25.3,23.3,45.8,44,61.5s43,25.7,67,30s47.2,6.7,69.5,7s40.8-0.8,55.5-3.5l23-4
	c0,25.3,0.2,54.8,0.5,88.5s0.5,51.8,0.5,54.5c0,12-4.3,22-13,30s-22,10.3-40,7c-154.7-51.3-280.8-143.8-378.5-277.5
	S-475,1168.3-475,1001c0-139.3,34.3-267.8,103-385.5S-210.2,404.7-92.5,336S153.7,233,293,233z M-184,1336c2-4.7-0.3-8.7-7-12
	c-6.7-2-11-1.3-13,2c-2,4.7,0.3,8.7,7,12C-191,1342-186.7,1341.3-184,1336z M-153,1370c4.7-3.3,4-8.7-2-16c-6.7-6-12-7-16-3
	c-4.7,3.3-4,8.7,2,16C-162.3,1373.7-157,1374.7-153,1370z M-123,1415c6-4.7,6-11,0-19c-5.3-8.7-11-10.7-17-6c-6,3.3-6,9.3,0,18
	S-128.3,1419-123,1415z M-81,1457c5.3-5.3,4-11.7-4-19c-8-8-14.7-9-20-3c-6,5.3-4.7,11.7,4,19C-93,1462-86.3,1463-81,1457z
	 M-24,1482c2-7.3-2.3-12.7-13-16c-10-2.7-16.3-0.3-19,7s1.7,12.3,13,15C-33,1492-26.7,1490-24,1482z M39,1487c0-8.7-5.7-12.3-17-11
	c-10.7,0-16,3.7-16,11c0,8.7,5.7,12.3,17,11C33.7,1498,39,1494.3,39,1487z M97,1477c-1.3-7.3-7.3-10.3-18-9c-10.7,2-15.3,7-14,15
	s7.3,10.7,18,8S98.3,1483.7,97,1477z"/>
</svg>
