<?xml version="1.0" encoding="utf-8"?>
<!-- Generator: Adobe Illustrator 18.1.1, SVG Export Plug-In . SVG Version: 6.00 Build 0)  -->
<svg version="1.1" id="Layer_1" xmlns="http://www.w3.org/2000/svg" xmlns:xlink="http://www.w3.org/1999/xlink" x="0px" y="0px"
	 viewBox="-1471 972.3 56.7 56.7" enable-background="new -1471 972.3 56.7 56.7" xml:space="preserve">
<path fill="#FFFFFF" d="M-1414.1,982.7c0,12.1,0,24.3,0,36.4c-1.2,5.5-4.6,8.9-10.2,10.2c-12.1,0-24.3,0-36.4,0
	c-5.5-1.2-8.9-4.6-10.2-10.2c0-12.1,0-24.3,0-36.4c1.2-5.5,4.6-8.9,10.2-10.2c12.1,0,24.3,0,36.4,0
	C-1418.7,973.8-1415.3,977.2-1414.1,982.7z M-1423.6,1017.4c0-5.8,0.1-11.5,0-17.1c-0.1-4.4-2.6-7.6-6.2-8.5c-3.8-0.9-7.1,0-9.7,3
	c-0.1,0.1-0.3,0.3-0.6,0.5c0-1.4,0-2.6,0-3.8c-2.4,0-4.7,0-7,0c0,8.7,0,17.2,0,25.8c2.4,0,4.7,0,7,0c0-4.3-0.1-8.5,0-12.7
	c0-1.2,0.2-2.5,0.7-3.5c0.8-1.8,2.4-2.8,4.5-2.6c2,0.2,3.2,1.3,3.7,3.1c0.3,1,0.4,2,0.4,3c0.1,3.5,0,7,0,10.5c0,0.7,0,1.5,0,2.2
	C-1428.2,1017.4-1425.9,1017.4-1423.6,1017.4z M-1458.9,991.5c0,8.7,0,17.3,0,25.9c2.4,0,4.6,0,6.9,0c0-8.6,0-17.2,0-25.9
	C-1454.3,991.5-1456.5,991.5-1458.9,991.5z M-1451.3,984.3c0-2.3-1.8-4.2-4.1-4.2c-2.3,0-4.1,1.8-4.1,4.1c0,2.3,1.8,4.1,4.1,4.2
	C-1453.1,988.4-1451.3,986.6-1451.3,984.3z"/>
<path fill="#FFFFFF" d="M-1460.6,972.5c-5.5,1.2-8.9,4.6-10.2,10.2c0-3.4,0-6.8,0-10.2C-1467.4,972.5-1464,972.5-1460.6,972.5z"/>
<path fill="#FFFFFF" d="M-1414.1,982.7c-1.2-5.5-4.6-8.9-10.2-10.2c3.4,0,6.8,0,10.2,0C-1414.1,975.9-1414.1,979.3-1414.1,982.7z"/>
<path fill="#FFFFFF" d="M-1470.8,1019.1c1.2,5.5,4.6,8.9,10.2,10.2c-3.4,0-6.8,0-10.2,0C-1470.8,1025.9-1470.8,1022.5-1470.8,1019.1
	z"/>
<path fill="#FFFFFF" d="M-1424.2,1029.2c5.5-1.2,8.9-4.6,10.2-10.2c0,3.4,0,6.8,0,10.2C-1417.5,1029.2-1420.8,1029.2-1424.2,1029.2z
	"/>
</svg>
